<svg xmlns="http://www.w3.org/2000/svg" width="1200" height="700" viewBox="0 0 1200 700">
  <defs>
    <linearGradient id="qbg" x1="0%" y1="0%" x2="100%" y2="100%">
      <stop offset="0%" style="stop-color:#080706"/>
      <stop offset="100%" style="stop-color:#1a120c"/>
    </linearGradient>
    <pattern id="chain" width="56" height="56" patternUnits="userSpaceOnUse">
      <rect width="56" height="56" fill="none"/>
      <rect x="4" y="4" width="48" height="48" rx="6" fill="none" stroke="rgba(232,165,75,0.12)" stroke-width="1"/>
    </pattern>
  </defs>
  <rect width="1200" height="700" fill="url(#qbg)"/>
  <rect width="1200" height="700" fill="url(#chain)"/>
  <g transform="translate(80,52)">
    <rect width="1040" height="596" rx="20" fill="#0e0c0a" stroke="rgba(232,165,75,0.35)" stroke-width="1.5"/>
    <text x="32" y="44" fill="#e8a54b" font-family="Georgia,serif" font-size="12" letter-spacing="0.2em">QLDB JOURNAL</text>
    <text x="800" y="44" fill="#3dd6c6" font-family="Georgia,serif" font-size="11">HASH CHAIN VERIFY</text>
    <g transform="translate(32,84)">
      <rect width="976" height="72" rx="10" fill="#14110f" stroke="rgba(61,214,198,0.2)"/>
      <text x="20" y="32" fill="#9c9588" font-family="Georgia,serif" font-size="10">BLOCK 09AF2E</text>
      <text x="20" y="52" fill="#f4f0e8" font-family="Georgia,serif" font-size="13">parent_hash + doc_digest + notary_sig</text>
      <rect x="720" y="18" width="220" height="36" rx="8" fill="rgba(232,165,75,0.18)"/>
      <text x="740" y="42" fill="#e8a54b" font-family="Georgia,serif" font-size="12" font-weight="bold">IMMUTABLE OK</text>
    </g>
    <g transform="translate(32,180)">
      <rect width="976" height="72" rx="10" fill="#14110f" stroke="rgba(61,214,198,0.15)"/>
      <text x="20" y="32" fill="#9c9588" font-family="Georgia,serif" font-size="10">BLOCK 09AF1C</text>
      <text x="20" y="52" fill="#f4f0e8" font-family="Georgia,serif" font-size="13">parent_hash + doc_digest + notary_sig</text>
    </g>
    <g transform="translate(32,276)">
      <rect width="976" height="72" rx="10" fill="#14110f" stroke="rgba(61,214,198,0.12)"/>
      <text x="20" y="32" fill="#9c9588" font-family="Georgia,serif" font-size="10">BLOCK 09AF0B</text>
      <text x="20" y="52" fill="#f4f0e8" font-family="Georgia,serif" font-size="13">parent_hash + doc_digest + notary_sig</text>
    </g>
    <g transform="translate(32,400)">
      <rect x="0" y="0" width="480" height="196" rx="14" fill="#0a0806" stroke="rgba(232,165,75,0.2)"/>
      <text x="24" y="36" fill="#9c9588" font-family="Georgia,serif" font-size="10" letter-spacing="0.12em">PWA CLIENT</text>
      <rect x="24" y="56" width="432" height="110" rx="8" fill="#12100e"/>
      <rect x="40" y="76" width="180" height="12" rx="3" fill="#e8a54b" opacity="0.7"/>
      <rect x="40" y="98" width="260" height="12" rx="3" fill="#3a322a"/>
      <rect x="40" y="120" width="220" height="12" rx="3" fill="#3a322a"/>
    </g>
    <g transform="translate(528,400)">
      <rect x="0" y="0" width="480" height="196" rx="14" fill="#0a0806" stroke="rgba(61,214,198,0.22)"/>
      <text x="24" y="36" fill="#9c9588" font-family="Georgia,serif" font-size="10" letter-spacing="0.12em">NEST ON AWS</text>
      <rect x="24" y="60" width="200" height="56" rx="8" fill="rgba(61,214,198,0.12)"/>
      <text x="40" y="96" fill="#3dd6c6" font-family="Georgia,serif" font-size="12">microsvc deploy</text>
      <rect x="248" y="60" width="208" height="56" rx="8" fill="#1a1612"/>
      <text x="264" y="96" fill="#f4f0e8" font-family="Georgia,serif" font-size="11">CI/CD pipeline</text>
    </g>
  </g>
</svg>
