<svg xmlns="http://www.w3.org/2000/svg" width="1200" height="700" viewBox="0 0 1200 700">
  <defs>
    <linearGradient id="vbg" x1="0%" y1="100%" x2="100%" y2="0%">
      <stop offset="0%" style="stop-color:#050403"/>
      <stop offset="100%" style="stop-color:#0d1816"/>
    </linearGradient>
    <linearGradient id="cam" x1="0%" y1="0%" x2="100%" y2="100%">
      <stop offset="0%" style="stop-color:#1a4d45"/>
      <stop offset="100%" style="stop-color:#062420"/>
    </linearGradient>
  </defs>
  <rect width="1200" height="700" fill="url(#vbg)"/>
  <g transform="translate(64,48)">
    <rect width="1072" height="604" rx="22" fill="#0a0e0d" stroke="rgba(61,214,198,0.25)" stroke-width="1.5"/>
    <rect x="0" y="0" width="1072" height="52" fill="#0d1211"/>
    <circle cx="30" cy="26" r="6" fill="#e8a54b"/>
    <text x="52" y="32" fill="#f4f0e8" font-family="ui-sans-serif,system-ui,sans-serif" font-size="14" font-weight="600" letter-spacing="0.06em">Case session &#8212; encrypted</text>
    <text x="888" y="32" fill="#3dd6c6" font-family="ui-monospace,monospace" font-size="11" letter-spacing="0.12em">WEBRTC ON</text>
    <rect x="32" y="88" width="700" height="484" rx="16" fill="url(#cam)" stroke="rgba(244,240,232,0.1)"/>
    <ellipse cx="382" cy="330" rx="120" ry="150" fill="none" stroke="rgba(232,165,75,0.25)" stroke-width="2" stroke-dasharray="8 6"/>
    <circle cx="382" cy="310" r="64" fill="#1a1612" stroke="#3dd6c6" stroke-width="2"/>
    <text x="356" y="318" fill="#3dd6c6" font-family="ui-sans-serif,system-ui,sans-serif" font-size="13">counsel</text>
    <rect x="760" y="88" width="280" height="220" rx="14" fill="#080a09" stroke="rgba(61,214,198,0.2)"/>
    <text x="780" y="122" fill="#9c9588" font-family="ui-monospace,monospace" font-size="10" letter-spacing="0.2em">LIVE STATUS</text>
    <rect x="780" y="142" width="240" height="8" rx="2" fill="#3dd6c6" opacity="0.55"/>
    <rect x="780" y="162" width="200" height="8" rx="2" fill="#3a322a"/>
    <rect x="780" y="182" width="220" height="8" rx="2" fill="#3a322a"/>
    <rect x="780" y="210" width="240" height="44" rx="8" fill="rgba(232,165,75,0.15)" stroke="rgba(232,165,75,0.4)"/>
    <text x="792" y="238" fill="#e8a54b" font-family="ui-sans-serif,system-ui,sans-serif" font-size="12" font-weight="600">Document verified</text>
    <rect x="760" y="328" width="280" height="244" rx="14" fill="#080a09" stroke="rgba(244,240,232,0.08)"/>
    <text x="780" y="362" fill="#9c9588" font-family="ui-monospace,monospace" font-size="10" letter-spacing="0.18em">WS EVENTS</text>
    <g stroke="#e8a54b" stroke-width="2" opacity="0.7">
      <path d="M780 390 H1020"/>
      <path d="M780 420 H980"/>
      <path d="M780 450 H1000"/>
      <path d="M780 480 H960"/>
    </g>
    <circle cx="772" cy="390" r="4" fill="#3dd6c6"/>
    <circle cx="772" cy="420" r="4" fill="#3dd6c6"/>
    <circle cx="772" cy="450" r="4" fill="#3dd6c6"/>
  </g>
</svg>
